HIERARCHY
ROOT Hips
{
	OFFSET -14.64140 90.27770 -84.91600
	CHANNELS 6 Xposition Yposition Zposition Zrotation Xrotation Yrotation
	JOINT Spine
	{
		OFFSET 0.00000 13.20850 -1.60436
		CHANNELS 3 Zrotation Xrotation Yrotation
		JOINT Spine1
		{
			OFFSET 0.00000 8.61716 0.00000
			CHANNELS 3 Zrotation Xrotation Yrotation
			JOINT Spine2
			{
				OFFSET 0.00000 8.61717 0.00000
				CHANNELS 3 Zrotation Xrotation Yrotation
				JOINT Spine3
				{
					OFFSET 0.00000 8.61717 0.00000
					CHANNELS 3 Zrotation Xrotation Yrotation
					JOINT Neck
					{
						OFFSET 0.00000 11.07920 1.10792
						CHANNELS 3 Zrotation Xrotation Yrotation
						JOINT Neck1
						{
							OFFSET 0.00000 7.08032 0.00000
							CHANNELS 3 Zrotation Xrotation Yrotation
							JOINT Head
							{
								OFFSET 0.00000 7.08031 0.00000
								CHANNELS 3 Zrotation Xrotation Yrotation
								End site
								{
									OFFSET 0.00000 0.00000 0.00000
								}
							}
						}
					}
					JOINT RightShoulder
					{
						OFFSET -0.01000 7.91373 5.19711
						CHANNELS 3 Zrotation Xrotation Yrotation
						JOINT RightArm
						{
							OFFSET -18.41580 0.00000 0.00000
							CHANNELS 3 Zrotation Xrotation Yrotation
							JOINT RightForeArm
							{
								OFFSET -29.11090 0.00000 0.00000
								CHANNELS 3 Zrotation Xrotation Yrotation
								JOINT RightHand
								{
									OFFSET -24.65040 0.00000 0.00000
									CHANNELS 3 Zrotation Xrotation Yrotation
									JOINT RightHandThumb1
									{
										OFFSET -5.35114 -0.85590 3.97906
										CHANNELS 3 Zrotation Xrotation Yrotation
										JOINT RightHandThumb2
										{
											OFFSET -4.52789 0.00000 0.00000
											CHANNELS 3 Zrotation Xrotation Yrotation
											JOINT RightHandThumb3
											{
												OFFSET -2.46976 0.00000 0.00000
												CHANNELS 3 Zrotation Xrotation Yrotation
												End site
												{
													OFFSET 0.00000 0.00000 0.00000
												}
											}
										}
									}
									JOINT RightHandIndex1
									{
										OFFSET -14.26970 0.00000 2.88139
										CHANNELS 3 Zrotation Xrotation Yrotation
										JOINT RightHandIndex2
										{
											OFFSET -5.48836 0.00000 0.00000
											CHANNELS 3 Zrotation Xrotation Yrotation
											JOINT RightHandIndex3
											{
												OFFSET -3.01859 0.00000 0.00000
												CHANNELS 3 Zrotation Xrotation Yrotation
												End site
												{
													OFFSET 0.00000 0.00000 0.00000
												}
											}
										}
									}
									JOINT RightHandMiddle1
									{
										OFFSET -14.26970 0.00000 -0.09147
										CHANNELS 3 Zrotation Xrotation Yrotation
										JOINT RightHandMiddle2
										{
											OFFSET -6.17441 0.00000 0.00000
											CHANNELS 3 Zrotation Xrotation Yrotation
											JOINT RightHandMiddle3
											{
												OFFSET -3.56743 0.00000 0.00000
												CHANNELS 3 Zrotation Xrotation Yrotation
												End site
												{
													OFFSET 0.00000 0.00000 0.00000
												}
											}
										}
									}
									JOINT RightHandRing1
									{
										OFFSET -12.69180 0.00000 -3.06433
										CHANNELS 3 Zrotation Xrotation Yrotation
										JOINT RightHandRing2
										{
											OFFSET -5.62556 0.00000 0.00000
											CHANNELS 3 Zrotation Xrotation Yrotation
											JOINT RightHandRing3
											{
												OFFSET -3.56744 0.00000 0.00000
												CHANNELS 3 Zrotation Xrotation Yrotation
												End site
												{
													OFFSET 0.00000 0.00000 0.00000
												}
											}
										}
									}
									JOINT RightHandPinky1
									{
										OFFSET -11.11390 0.00000 -6.03719
										CHANNELS 3 Zrotation Xrotation Yrotation
										JOINT RightHandPinky2
										{
											OFFSET -4.52789 0.00000 0.00000
											CHANNELS 3 Zrotation Xrotation Yrotation
											JOINT RightHandPinky3
											{
												OFFSET -2.46976 0.00000 0.00000
												CHANNELS 3 Zrotation Xrotation Yrotation
												End site
												{
													OFFSET 0.00000 0.00000 0.00000
												}
											}
										}
									}
								}
							}
						}
					}
					JOINT LeftShoulder
					{
						OFFSET 0.01000 7.91373 5.19711
						CHANNELS 3 Zrotation Xrotation Yrotation
						JOINT LeftArm
						{
							OFFSET 18.41580 0.00000 0.00000
							CHANNELS 3 Zrotation Xrotation Yrotation
							JOINT LeftForeArm
							{
								OFFSET 29.11090 0.00000 0.00000
								CHANNELS 3 Zrotation Xrotation Yrotation
								JOINT LeftHand
								{
									OFFSET 24.65040 0.00000 0.00000
									CHANNELS 3 Zrotation Xrotation Yrotation
									JOINT LeftHandThumb1
									{
										OFFSET 5.35114 -0.85590 3.97906
										CHANNELS 3 Zrotation Xrotation Yrotation
										JOINT LeftHandThumb2
										{
											OFFSET 4.52789 0.00000 0.00000
											CHANNELS 3 Zrotation Xrotation Yrotation
											JOINT LeftHandThumb3
											{
												OFFSET 2.46977 0.00000 0.00000
												CHANNELS 3 Zrotation Xrotation Yrotation
												End site
												{
													OFFSET 0.00000 0.00000 0.00000
												}
											}
										}
									}
									JOINT LeftHandIndex1
									{
										OFFSET 14.26970 0.00000 2.88139
										CHANNELS 3 Zrotation Xrotation Yrotation
										JOINT LeftHandIndex2
										{
											OFFSET 5.48836 0.00000 0.00000
											CHANNELS 3 Zrotation Xrotation Yrotation
											JOINT LeftHandIndex3
											{
												OFFSET 3.01859 0.00000 0.00000
												CHANNELS 3 Zrotation Xrotation Yrotation
												End site
												{
													OFFSET 0.00000 0.00000 0.00000
												}
											}
										}
									}
									JOINT LeftHandMiddle1
									{
										OFFSET 14.26970 0.00000 -0.09147
										CHANNELS 3 Zrotation Xrotation Yrotation
										JOINT LeftHandMiddle2
										{
											OFFSET 6.17440 0.00000 0.00000
											CHANNELS 3 Zrotation Xrotation Yrotation
											JOINT LeftHandMiddle3
											{
												OFFSET 3.56744 0.00000 0.00000
												CHANNELS 3 Zrotation Xrotation Yrotation
												End site
												{
													OFFSET 0.00000 0.00000 0.00000
												}
											}
										}
									}
									JOINT LeftHandRing1
									{
										OFFSET 12.69180 0.00000 -3.06433
										CHANNELS 3 Zrotation Xrotation Yrotation
										JOINT LeftHandRing2
										{
											OFFSET 5.62556 0.00000 0.00000
											CHANNELS 3 Zrotation Xrotation Yrotation
											JOINT LeftHandRing3
											{
												OFFSET 3.56744 0.00000 0.00000
												CHANNELS 3 Zrotation Xrotation Yrotation
												End site
												{
													OFFSET 0.00000 0.00000 0.00000
												}
											}
										}
									}
									JOINT LeftHandPinky1
									{
										OFFSET 11.11390 0.00000 -6.03719
										CHANNELS 3 Zrotation Xrotation Yrotation
										JOINT LeftHandPinky2
										{
											OFFSET 4.52789 0.00000 0.00000
											CHANNELS 3 Zrotation Xrotation Yrotation
											JOINT LeftHandPinky3
											{
												OFFSET 2.46976 0.00000 0.00000
												CHANNELS 3 Zrotation Xrotation Yrotation
												End site
												{
													OFFSET 0.00000 0.00000 0.00000
												}
											}
										}
									}
								}
							}
						}
					}
					JOINT pCube4
					{
						OFFSET 0.00000 10.91090 1.10792
						CHANNELS 3 Zrotation Xrotation Yrotation
						End site
						{
							OFFSET 0.00000 0.00000 0.00000
						}
					}
				}
			}
		}
	}
	JOINT RightUpLeg
	{
		OFFSET -9.98441 0.00000 0.00000
		CHANNELS 3 Zrotation Xrotation Yrotation
		JOINT RightLeg
		{
			OFFSET 0.00000 -42.11790 0.00000
			CHANNELS 3 Zrotation Xrotation Yrotation
			JOINT RightFoot
			{
				OFFSET 0.00000 -45.00020 -0.00001
				CHANNELS 3 Zrotation Xrotation Yrotation
				JOINT RightForeFoot
				{
					OFFSET 0.00000 -3.74820 0.00000
					CHANNELS 3 Zrotation Xrotation Yrotation
					JOINT RightToeBase
					{
						OFFSET 0.00000 0.06325 14.43120
						CHANNELS 3 Zrotation Xrotation Yrotation
						End site
						{
							OFFSET 0.00000 0.00000 0.00000
						}
					}
				}
			}
		}
	}
	JOINT LeftUpLeg
	{
		OFFSET 9.98441 0.00000 0.00000
		CHANNELS 3 Zrotation Xrotation Yrotation
		JOINT LeftLeg
		{
			OFFSET 0.00000 -42.11800 0.00000
			CHANNELS 3 Zrotation Xrotation Yrotation
			JOINT LeftFoot
			{
				OFFSET 0.00000 -45.00070 0.00000
				CHANNELS 3 Zrotation Xrotation Yrotation
				JOINT LeftForeFoot
				{
					OFFSET 0.00000 -3.74824 0.00000
					CHANNELS 3 Zrotation Xrotation Yrotation
					JOINT LeftToeBase
					{
						OFFSET 0.00000 0.06325 14.43110
						CHANNELS 3 Zrotation Xrotation Yrotation
						End site
						{
							OFFSET 0.00000 0.00000 0.00000
						}
					}
				}
			}
		}
	}
}
MOTION
Frames: 4
Frame Time: 0.050000
-0.04170876318307654 -0.01506947770136024 -0.04696346595867696 0.004645288197578561 -0.011508364409848216 0.046830581943142886 5.887587883657016 3.0761027450831797 -2.322277014786909 -0.7450551668914408 3.418789761413112 0.36984167711198734 -0.5383184548709492 -1.0455150144647274 0.6063385611789974 -0.2655936621209117 -0.4860855561445317 -0.3026202313749611 0.2146370159439166 11.247729953354119 -1.6549008569027523 0.4123804621472459 -0.638400307766439 -3.222455451941622 1.0320900893091889 -16.933925781295333 -0.34322747190176384 -9.305382397782882 3.3639008389441445 -18.88657801937762 80.3972700934185 1.5630578993242983 -3.424771737372745 0.5614006005676632 7.718569085932357 56.14364021704764 17.615932985645003 -0.3110184606972939 -2.9068604618890648 4.562924193351339 -0.11588715925841625 -1.5569369811369909 -0.013804344789365451 -0.043983838618166474 -56.2244539784376 0.03031608310588354 0.022522996749759557 -56.24272921049907 -38.726669384301104 -0.03475724555802745 0.024650130754279027 -0.019196804872955924 0.021707588118514788 -0.0002702645268398824 0.0018521548324593883 -0.02585776488212548 0.016611128939245757 -36.69968113738122 0.048738931224004765 0.02298613421789922 0.04303872160947887 0.026970859474261203 0.028688559617669557 0.01014096339148867 -0.0195641531420895 0.015959751841078836 -19.76935316393506 -0.030550489744324557 -0.0047510193999403885 -0.009171830396350625 -0.023733067371900552 0.03767074346559507 -0.015686712156558667 -0.046588650418048355 -0.022633745237340037 24.043349240810933 -0.029908049622923722 -0.019373478705203825 28.874255467015693 0.024320585045949056 -0.00069902107985014 28.902146835894833 0.046797347741398335 0.020944160519079852 8.667888305480083 2.1977429029491944 15.388187179871968 -75.7173348995015 15.297478825477214 -5.616054235694916 3.200532598898852 8.253492382911634 -44.55664041356522 -19.97785452945015 -0.2187059227473933 1.0150258487685488 -0.46226772913504743 0.07808890571623663 -8.10188087390776 -0.012035963020084429 0.01694982111993101 44.53174542350079 -0.038813971600271925 0.018550786998001594 44.56674922511424 12.437454411271693 -0.01534222913578269 -0.01814891266025121 0.009864162164062586 -0.012729483377683872 -0.04146380105689977 0.009111720174729176 -0.029420810746632803 -0.03310879273983139 11.139647857797158 -0.010028040486834476 -0.0027312700773658633 -0.004452887878005764 -0.014513012336895543 -0.037880334962797954 -0.04803165802650411 -0.005315757410637065 0.020732105953058206 4.746878826606729 0.023613705970750107 0.0092255156188147 -0.026563608370123972 0.013232900126368921 0.0068576237195242 0.012156762239764664 0.0008650957349460763 -0.04095629713921142 -5.617986969911822 -0.005389561300279975 -0.037350175384336395 -6.718730680455365 -0.004339920812528819 -0.030363874337053513 -6.706236683500162 0.0031032881677774105 -0.049366214061641045 0.011713588649692616 0.034577889856676605 -0.01830596978901775 8.006395236561294 3.5412386452643427 -19.20619159025276 0.035082636518928755 10.386315764361994 0.060821094873147866 -5.645113707395195 -15.664116425654763 3.188128141203474 0.049766710688846166 -0.03822780964465472 -0.04022418166727325 -0.011583194464254501 4.741373199334769 0.003868333692333769 12.46729832479598 -8.268253308374714 6.859142456263765 -0.029466667690948214 46.40854622285683 0.022456982019441504 -4.321218578224716 -14.732748683803173 -3.815100608233751 0.0028534184313853215 0.017221788517243868 0.02757625711466462 0.041810230149227474 -10.757808976589489 -0.03332336699161466 
-0.029050738318614485 0.0008997023505566587 0.029806402531334465 0.04485884573597198 0.04463399681940397 0.0032833868643965315 5.816517593648151 2.98989481235924 -2.3387978656733424 -0.7038731357137705 3.4251770603928806 0.34306047342607926 -0.5390691198359168 -1.0034367150231223 0.659350762275934 -0.22511747831776546 -0.5155980801466387 -0.29306726998783283 0.17574875731472622 11.492702747635558 -1.6997216064425786 0.4817327671845753 -0.6042973480381834 -3.330399937044362 1.0378632352294663 -16.958945881998574 -0.351048237274978 -9.497301409698675 3.3062880837432593 -18.95602200162543 79.32910824841954 1.1581960185547882 -3.450532917424337 1.569446132074728 7.311902432409984 59.12088142449756 17.253288704906105 -0.35450739862861763 -2.945184136535984 4.5251077830259065 -0.13575506783912977 -1.5979697739058396 -0.0036906755540567168 0.049652700907236565 -56.25410181707463 0.04677857305782236 -0.006001177204947312 -56.20302618134784 -38.762169993227545 0.0005222688097598729 0.0355493408639739 0.0005352307206205527 -0.0026073867362486503 -0.013832944556081861 -0.026566008657058243 -0.016262233393995622 -0.013218494167408579 -36.69020642646589 0.0003909610456697067 -0.024502062053898647 0.019274651875717686 0.02664165459132116 -0.0013923374631173008 0.007042889638616185 0.018663305774273404 0.005342765717097347 -19.77686034158314 -0.033062232455744626 0.0004909618422790503 0.0327617355544706 -0.008206221100023095 0.04995305899360922 0.004628889481237572 -0.04413967079015508 0.012017080664562458 24.07678249989225 0.0008107826287477176 -0.019837999034056454 28.829563210591793 -0.013831472067396022 -0.016131138977091643 28.836039563277804 0.01778207853995159 -0.017030952058134288 8.837652854305155 2.2729402556183778 15.604368420902384 -75.07562408824245 14.351850341862068 -5.614801940124748 2.361217854491292 8.147151407726184 -45.54546462032515 -19.878537682320662 -0.30475595769631036 0.9808211478686112 -0.5113939258657781 0.026590345174875095 -8.141750220911437 -0.009902210836553288 0.00417025049037717 44.56752545618967 -0.03577834543230571 -0.0325310210905975 44.59733735783133 12.469744534758643 0.02138555302428841 0.008654877208276136 -0.013778864301132376 0.016940875471322617 0.001143158824769154 -0.002492126065910749 -0.0017663909764410557 -0.009219919076667782 11.141136187454066 -0.02562935243831056 0.04597132997457657 0.01441316484191819 0.007468777936561796 -0.022590151809548376 -0.031154164290815703 -0.015918049451809795 0.01690344344392029 4.7283439176517525 0.033036812623183885 0.022973257594739255 -0.008408405730025392 -0.011823921192794788 -0.014971658696194967 0.021450006139368143 0.04064739814045546 0.004746358846777534 -5.617541064355468 0.03514837200986145 0.03252934529792251 -6.757742757627823 -0.007002858732062364 -0.04876406216346718 -6.673813257451788 0.032392725137963534 0.03844950915144049 0.03418669489725883 0.019338815189380465 0.010536425837354384 8.0930469839834 3.451043764637304 -19.19254071599967 -0.04417307330154344 10.405270034351132 -0.0029435167378746366 -5.6089547182592465 -15.670239625672004 3.2139660235504515 -0.04445781104281805 -0.002406971466164337 0.04910090781878469 0.030588174839258273 4.722984572198104 -0.023571694056961245 12.436248822959298 -8.277571506383513 6.895245732193186 -0.0346288735563918 46.425128140466946 0.02669187049928436 -4.284996653422604 -14.734079114266828 -3.799347841373018 -0.007464692694494565 -0.04899929133169889 0.005767914990475297 -0.04335131293490897 -10.700899252626158 -0.007626044426520749 
-0.006825044761894316 0.005189067884469369 0.025652635519374495 0.013482989783883093 -0.009351300300921518 -0.019096594537006344 5.550232348077796 2.9393228821212296 -2.344007207102716 -0.7282799176362096 3.499239120123089 0.41926598732107345 -0.6032412280527364 -1.0404254691038788 0.7552048538406866 -0.26073852857005914 -0.46347330458114516 -0.26905229702313593 0.2130539915945644 11.74732285811225 -1.7186997207703647 0.42435067263692333 -0.648551908387467 -3.4482947853076875 1.0638531469261006 -16.972904993920377 -0.3036952908306827 -9.658688953310971 3.40384356316312 -19.053186275195614 78.066117507622 0.7807726945089352 -2.967521244352935 3.3231588532250806 7.080936792870991 63.94173909263386 17.157709802591025 -0.3573104782674171 -3.348777045103159 4.507746920685203 -0.0838351954678252 -1.604223762358544 -0.002265306379352993 0.010291857560508174 -56.27877279781439 -0.04921740601063523 0.02751687597898414 -56.2056301848123 -38.78247071579749 0.03208335695429041 -0.029804004695110915 0.019595848090109932 0.009765374416260537 -0.004346445717739945 -0.03372635132702754 0.04778117057715535 0.015744386995834452 -36.69272812262893 0.01368931235183519 0.03524216226201458 -0.02020852949545164 -0.020643550077197675 -0.038640562542766294 0.005435081232946828 0.03105638767351396 -0.01934787007517574 -19.717560303802667 0.019311767982612114 0.04541229475534879 0.029390876324618485 -0.023085615138329896 -0.03241768244060762 0.030166476396522708 0.022612858587406637 0.011692964400057954 24.024003660204322 0.03599329255938511 0.04413374646501245 28.899171672708345 0.013808791053690825 0.030165898977705642 28.90276059812921 -0.019639132707800874 0.019053745935660747 8.962554157699799 2.2029668638746256 15.797667610845341 -74.45427033156359 13.70028896410174 -5.682011527507059 1.384391760862797 8.157128444325394 -46.663172403262706 -19.825916394384382 -0.20770471125481757 0.7370798665370824 -0.4915267042486029 0.08281151179243834 -8.102041294362213 0.011005420080774883 0.01762479462158887 44.564381724231296 0.003688570638337912 -0.0042072819791778215 44.538269439997634 12.480022475717977 0.027987946690453302 -0.03300133392211475 -0.013167638247310228 -0.008283161686457166 0.023501078354568886 -0.04538830918343099 0.04008279172683747 -0.016609369442149056 11.110264388061951 -0.04480450525108076 -0.018506851678416616 -0.04091912869322758 0.03953014657280387 -0.018131776231015594 0.004990024954378165 -0.03027754202162012 0.04091582814048858 4.765784031983355 -0.028654528227178577 0.019220616746065615 -0.03414151937098952 -0.017754692135997525 0.01824123420470895 -0.03754873211232117 0.030928979624250588 0.02093161936095591 -5.628227771434701 -0.04951153466151473 -0.019427039681715455 -6.726518717517341 0.0010617296457059004 -0.004428166303810294 -6.68566819923363 0.0217114554062083 -0.0492499028809939 -0.025974476720511744 0.009913772685853825 0.03286445719286644 8.046111182398752 3.4668622458142995 -19.2388261493212 0.012179775014379097 10.400946842417838 0.042186969642864926 -5.57306064714521 -15.676407108562454 3.150392427737895 -0.03235842485905655 0.007392190982457022 0.033887760510240166 -0.01527170761876492 4.667530531192151 0.01737907302874463 12.473182758479128 -8.23900807084599 6.84611792074456 -0.03584137548215719 46.368677859690706 -0.03142646300566689 -4.2961512688356285 -14.714983947374458 -3.8844008110910027 0.024669561676558458 0.01402647094753644 0.001896348506514008 0.04961497413502909 -10.702169968238941 -0.0223752064113054 
0.010845006049590843 0.014751381213872362 0.04213110028814588 0.027154398372010686 0.018171961792656705 -0.028496330325930117 5.314995378358916 3.0169870124699507 -2.304035448872232 -0.7495124869664084 3.505592568774031 0.388380653896793 -0.6182860455575224 -1.11016897104117 0.7815062424185311 -0.3160118117025831 -0.5369110737829904 -0.2815082505713847 0.1881564629975748 11.998851686482752 -1.7484601144697398 0.45856779503186157 -0.6513298186727647 -3.5796037040167055 1.0771355076585092 -17.011619793182692 -0.3771202533586347 -9.74549318085397 3.3647466729398743 -19.09317751404988 76.8902914152308 0.4004684944728795 -1.9748761576858438 5.1738978269264875 6.85765000882038 68.77806416459279 17.287746772703635 -0.46596412854111846 -3.836095565852275 4.513719103766151 -0.13020018900469987 -1.5431593067512246 0.0396463678514725 -0.04090262473752811 -56.20920603445239 0.010494606640725867 0.03727211041826825 -56.269552138080925 -38.809359811006004 -0.02554643528612911 0.024642008582350848 0.016748788807741426 0.04943456968071247 -0.025262440754256217 -0.039047732206349946 -0.001152157632760466 0.0408707597343375 -36.69134048419688 -0.018122585162772424 0.02976069571031203 -0.024038652444874208 -0.0002551480935126975 -0.015263732707921657 -0.0036292709160442613 0.00015661286396784506 0.0041311951144527405 -19.75655874826029 0.04946471757578747 0.041054291405066855 0.0041657265826914765 0.007260018210479692 0.009645689266975215 -0.04446295647652544 -0.018511259980147198 -0.00403977975264929 24.087309758315076 -0.04491127554577965 0.018067117988470407 28.861007823497705 0.049125382727961395 0.031240694890873014 28.85268770207446 0.031264944578186314 -0.022273301078673997 9.090819299806828 2.255982514957454 15.945416154294477 -74.03631124626385 13.227723021238706 -5.851542625924881 0.39094089467920407 8.324948564334019 -47.42683729862903 -19.99660854131004 -0.02186586609980488 0.44697309510999006 -0.4727297569231544 0.1087969355175875 -8.1497116431725 -0.01714456006842725 0.00373898426064789 44.52124686423025 0.04953935872550304 0.01173924833383615 44.609607450055805 12.454418874555225 -0.025329737371725478 0.03339038359087412 0.020978362740930716 -0.0035712830711126194 0.010226417066813273 0.04374751856149313 0.025481111250075076 -0.020514787452029747 11.07903498233243 -0.0016591074525839032 0.02977977515311783 0.0017969899058418743 0.019844633029665385 -0.020503261602164053 -0.011438788508045042 0.017251152277998096 -0.01705377815495863 4.775776502082425 0.021851614805095267 -0.03225160659927557 -0.021020031887152176 0.03741339674591506 0.005319039235016772 0.029082397832582638 0.004418137731381461 -0.026912941813193002 -5.644807021279304 -0.00946040892290604 0.031864985171618725 -6.705778912712892 0.023535469239501294 -0.02927581668222654 -6.764934452573063 0.019044443051801432 0.04262594212200675 -0.030198484533823507 -0.007368601671840904 -0.013881331232961555 8.015454948562846 3.5092132091338546 -19.20468850957333 -0.025153094327560598 10.41933680451446 0.04063169150741801 -5.653043787515747 -15.683885097328352 3.1980012773009765 -0.012008806999890173 0.028016726668007166 -0.010539798002490205 0.028075364786637184 4.650526517509751 -0.025229980534886783 12.4702512974305 -8.239679195988266 6.904333965583986 -0.023866926074338886 46.33615614201292 -0.018810096350029296 -4.316146798731486 -14.740185729228807 -3.8827595242950985 0.015479009881259448 -0.03921538996676175 0.004642805369683827 -0.04228500224443008 -10.734538208447724 0.02403716947712425 
